{"title":"Elsker dig for evigt.2002.SWESUB.DVDRip.XviD.-Zen_Bud","uid":5668184,"size":731746304,"categoryP":"video","categoryS":"movies","magnet":"?xt=urn:btih:2ea9a460b05e712ba532aaa28e5cecd266368811&amp;dn=Elsker+dig+for+evigt.2002.SWESUB.DVDRip.XviD.-Zen_Bud&amp;tr=udp%3A%2F%2Ftracker.openbittorrent.com%3A80&amp;tr=udp%3A%2F%2Fopen.demonii.com%3A1337&amp;tr=udp%3A%2F%2Ftracker.coppersurfer.tk%3A6969&amp;tr=udp%3A%2F%2Fexodus.desync.com%3A6969","seeders":1,"leechers":0,"uploader":"Zen_Bud","files":-1,"time":1278228210,"description":"General\nComplete name                    : Elsker dig for evigt.avi\nFormat                           : AVI\nFile size                        : 698 MiB\nDuration                         : 1h 48mn\nOverall bit rate                 : 897 Kbps\nWriting application              : VirtualDubMod 1.5.10.2 (build 2542/release)\nWriting library                  : VirtualDubMod build 2542/release\n\nVideo\nFormat                           : MPEG-4 Visual\nCodec ID/Hint                    : XviD\nDuration                         : 1h 48mn\nBit rate                         : 759 Kbps\nWidth                            : 708 pixels\nHeight                           : 498 pixels\nDisplay aspect ratio             : 1.422\nStream size                      : 591 MiB (85%)\nWriting library                  : XviD 1.2.1 (UTC 2008-12-04)\n\nAudio\n\nFormat                           : MPEG Audio\nCodec ID/Hint                    : MP3\nDuration                         : 1h 48mn\nBit rate                         : 128 Kbps\nChannel(s)                       : 2 channels\nSampling rate                    : 44.1 KHz\nStream size                      : 99.6 MiB (14%)\nWriting library                  : LAME3.98r\n\n\n","torrent":{"xt":"urn:btih:2ea9a460b05e712ba532aaa28e5cecd266368811","amp;dn":"Elsker+dig+for+evigt.2002.SWESUB.DVDRip.XviD.-Zen_Bud","amp;tr":["udp%3A%2F%2Ftracker.openbittorrent.com%3A80","udp%3A%2F%2Fopen.demonii.com%3A1337","udp%3A%2F%2Ftracker.coppersurfer.tk%3A6969","udp%3A%2F%2Fexodus.desync.com%3A6969"],"infoHash":"2ea9a460b05e712ba532aaa28e5cecd266368811","infoHashBuffer":{"type":"Buffer","data":[46,169,164,96,176,94,113,43,165,50,170,162,142,92,236,210,102,54,136,17]},"announce":[],"urlList":[]}}